<svg width="56" height="58" viewBox="0 0 56 58" fill="none" xmlns="http://www.w3.org/2000/svg">
<path d="M28 0C12.516 0 0 13.05 0 29C0 44.95 12.6 58 28 58C43.4 58 56 44.95 56 29C56 13.05 43.4 0 28 0ZM28 52.2C15.624 52.2 5.6 41.818 5.6 29C5.6 16.182 15.624 5.8 28 5.8C40.376 5.8 50.4 16.182 50.4 29C50.4 41.818 40.376 52.2 28 52.2ZM16.8 34.8L14 17.4L22.4 23.2L28 14.5L33.6 23.2L42 17.4L39.2 34.8H16.8ZM18.368 40.6C17.416 40.6 16.8 39.962 16.8 38.976V37.7H39.2V38.976C39.2 39.962 38.584 40.6 37.632 40.6H18.368Z" fill="#130F02"/>
</svg>
