<svg width="59" height="56" viewBox="0 0 59 56" fill="none" xmlns="http://www.w3.org/2000/svg">
<path d="M29.5 0C13.1865 0 0 12.6 0 28C0 43.4 13.275 56 29.5 56C45.725 56 59 43.4 59 28C59 12.6 45.725 0 29.5 0ZM29.5 50.4C16.461 50.4 5.9 40.376 5.9 28C5.9 15.624 16.461 5.6 29.5 5.6C42.539 5.6 53.1 15.624 53.1 28C53.1 40.376 42.539 50.4 29.5 50.4ZM17.7 33.6L14.75 16.8L23.6 22.4L29.5 14L35.4 22.4L44.25 16.8L41.3 33.6H17.7ZM19.352 39.2C18.349 39.2 17.7 38.584 17.7 37.632V36.4H41.3V37.632C41.3 38.584 40.651 39.2 39.648 39.2H19.352Z" fill="#C8BCBC"/>
</svg>
